<mxfile host="app.diagrams.net" agent="Mozilla/5.0 (Windows NT 10.0; Win64; x64) AppleWebKit/537.36 (KHTML, like Gecko) Chrome/136.0.0.0 Safari/537.36" version="26.2.14">
  <diagram name="Page-1" id="8sdDu0vK0MSiT6kUND63">
    <mxGraphModel dx="728" dy="518" grid="1" gridSize="10" guides="1" tooltips="1" connect="1" arrows="1" fold="1" page="1" pageScale="1" pageWidth="1169" pageHeight="827" math="0" shadow="0">
      <root>
        <mxCell id="0" />
        <mxCell id="1" parent="0" />
        <mxCell id="viiFKY2QcSOvLwfd27hr-11" value="orbital" parent="0" />
        <mxCell id="viiFKY2QcSOvLwfd27hr-14" value="PDS" style="rounded=0;whiteSpace=wrap;html=1;" parent="viiFKY2QcSOvLwfd27hr-11" vertex="1">
          <mxGeometry x="300" y="340" width="120" height="60" as="geometry" />
        </mxCell>
        <mxCell id="viiFKY2QcSOvLwfd27hr-15" value="PDS" style="rounded=0;whiteSpace=wrap;html=1;" parent="viiFKY2QcSOvLwfd27hr-11" vertex="1">
          <mxGeometry x="300" y="420" width="120" height="60" as="geometry" />
        </mxCell>
        <mxCell id="viiFKY2QcSOvLwfd27hr-16" value="Relay" style="shape=parallelogram;perimeter=parallelogramPerimeter;whiteSpace=wrap;html=1;fixedSize=1;" parent="viiFKY2QcSOvLwfd27hr-11" vertex="1">
          <mxGeometry x="514" y="340" width="120" height="60" as="geometry" />
        </mxCell>
        <mxCell id="viiFKY2QcSOvLwfd27hr-17" value="Appview" style="ellipse;whiteSpace=wrap;html=1;" parent="viiFKY2QcSOvLwfd27hr-11" vertex="1">
          <mxGeometry x="720" y="260" width="110" height="60" as="geometry" />
        </mxCell>
        <mxCell id="viiFKY2QcSOvLwfd27hr-19" value="Appview" style="ellipse;whiteSpace=wrap;html=1;" parent="viiFKY2QcSOvLwfd27hr-11" vertex="1">
          <mxGeometry x="720" y="340" width="70" height="50" as="geometry" />
        </mxCell>
        <mxCell id="viiFKY2QcSOvLwfd27hr-21" value="" style="shape=flexArrow;endArrow=classic;html=1;rounded=0;exitX=1;exitY=0.5;exitDx=0;exitDy=0;entryX=0.117;entryY=0.247;entryDx=0;entryDy=0;entryPerimeter=0;" parent="viiFKY2QcSOvLwfd27hr-11" source="viiFKY2QcSOvLwfd27hr-13" target="viiFKY2QcSOvLwfd27hr-16" edge="1">
          <mxGeometry width="50" height="50" relative="1" as="geometry">
            <mxPoint x="550" y="650" as="sourcePoint" />
            <mxPoint x="600" y="600" as="targetPoint" />
          </mxGeometry>
        </mxCell>
        <mxCell id="viiFKY2QcSOvLwfd27hr-22" value="" style="shape=flexArrow;endArrow=classic;html=1;rounded=0;exitX=1;exitY=0.5;exitDx=0;exitDy=0;entryX=0.12;entryY=0.467;entryDx=0;entryDy=0;entryPerimeter=0;" parent="viiFKY2QcSOvLwfd27hr-11" source="viiFKY2QcSOvLwfd27hr-14" target="viiFKY2QcSOvLwfd27hr-16" edge="1">
          <mxGeometry width="50" height="50" relative="1" as="geometry">
            <mxPoint x="430" y="300" as="sourcePoint" />
            <mxPoint x="538" y="365" as="targetPoint" />
          </mxGeometry>
        </mxCell>
        <mxCell id="viiFKY2QcSOvLwfd27hr-23" value="" style="shape=flexArrow;endArrow=classic;html=1;rounded=0;exitX=1;exitY=0.5;exitDx=0;exitDy=0;entryX=0;entryY=0.75;entryDx=0;entryDy=0;" parent="viiFKY2QcSOvLwfd27hr-11" source="viiFKY2QcSOvLwfd27hr-15" target="viiFKY2QcSOvLwfd27hr-16" edge="1">
          <mxGeometry width="50" height="50" relative="1" as="geometry">
            <mxPoint x="430" y="380" as="sourcePoint" />
            <mxPoint x="520" y="390" as="targetPoint" />
          </mxGeometry>
        </mxCell>
        <mxCell id="viiFKY2QcSOvLwfd27hr-24" value="" style="endArrow=classic;html=1;rounded=0;entryX=-0.027;entryY=0.44;entryDx=0;entryDy=0;entryPerimeter=0;exitX=1;exitY=0.25;exitDx=0;exitDy=0;" parent="viiFKY2QcSOvLwfd27hr-11" source="viiFKY2QcSOvLwfd27hr-16" target="viiFKY2QcSOvLwfd27hr-17" edge="1">
          <mxGeometry width="50" height="50" relative="1" as="geometry">
            <mxPoint x="510" y="390" as="sourcePoint" />
            <mxPoint x="560" y="340" as="targetPoint" />
          </mxGeometry>
        </mxCell>
        <mxCell id="viiFKY2QcSOvLwfd27hr-25" value="" style="endArrow=classic;html=1;rounded=0;entryX=0.009;entryY=0.448;entryDx=0;entryDy=0;entryPerimeter=0;exitX=0.923;exitY=0.433;exitDx=0;exitDy=0;exitPerimeter=0;" parent="viiFKY2QcSOvLwfd27hr-11" source="viiFKY2QcSOvLwfd27hr-16" target="viiFKY2QcSOvLwfd27hr-19" edge="1">
          <mxGeometry width="50" height="50" relative="1" as="geometry">
            <mxPoint x="639" y="366" as="sourcePoint" />
            <mxPoint x="728" y="302" as="targetPoint" />
          </mxGeometry>
        </mxCell>
        <mxCell id="viiFKY2QcSOvLwfd27hr-13" value="PDS" style="rounded=0;whiteSpace=wrap;html=1;" parent="viiFKY2QcSOvLwfd27hr-11" vertex="1">
          <mxGeometry x="300" y="260" width="120" height="60" as="geometry" />
        </mxCell>
        <mxCell id="viiFKY2QcSOvLwfd27hr-12" value="strato" parent="0" />
        <mxCell id="viiFKY2QcSOvLwfd27hr-27" value="PLC Directory" style="rounded=1;whiteSpace=wrap;html=1;" parent="viiFKY2QcSOvLwfd27hr-12" vertex="1">
          <mxGeometry x="470" y="180" width="60" height="40" as="geometry" />
        </mxCell>
        <mxCell id="viiFKY2QcSOvLwfd27hr-30" value="user search&amp;nbsp;" style="rounded=1;whiteSpace=wrap;html=1;fontSize=7;" parent="viiFKY2QcSOvLwfd27hr-12" vertex="1">
          <mxGeometry x="746" y="267" width="60" height="14" as="geometry" />
        </mxCell>
        <mxCell id="viiFKY2QcSOvLwfd27hr-32" value="" style="endArrow=classic;html=1;rounded=0;entryX=0.957;entryY=0.349;entryDx=0;entryDy=0;entryPerimeter=0;exitX=0.052;exitY=0.486;exitDx=0;exitDy=0;exitPerimeter=0;" parent="viiFKY2QcSOvLwfd27hr-12" source="viiFKY2QcSOvLwfd27hr-30" target="viiFKY2QcSOvLwfd27hr-27" edge="1">
          <mxGeometry width="50" height="50" relative="1" as="geometry">
            <mxPoint x="639" y="366" as="sourcePoint" />
            <mxPoint x="737" y="246" as="targetPoint" />
          </mxGeometry>
        </mxCell>
        <mxCell id="viiFKY2QcSOvLwfd27hr-33" value="" style="endArrow=classic;html=1;rounded=0;entryX=0.5;entryY=0;entryDx=0;entryDy=0;exitX=0;exitY=0.5;exitDx=0;exitDy=0;" parent="viiFKY2QcSOvLwfd27hr-12" source="viiFKY2QcSOvLwfd27hr-27" target="viiFKY2QcSOvLwfd27hr-13" edge="1">
          <mxGeometry width="50" height="50" relative="1" as="geometry">
            <mxPoint x="764" y="217" as="sourcePoint" />
            <mxPoint x="537" y="204" as="targetPoint" />
          </mxGeometry>
        </mxCell>
        <mxCell id="oapOpFwkoIbuOwmZs21n-4" value="User&amp;nbsp;&lt;div&gt;Account&lt;/div&gt;" style="shape=umlActor;verticalLabelPosition=bottom;verticalAlign=top;html=1;outlineConnect=0;" vertex="1" parent="viiFKY2QcSOvLwfd27hr-12">
          <mxGeometry x="27" y="275" width="30" height="40" as="geometry" />
        </mxCell>
        <mxCell id="oapOpFwkoIbuOwmZs21n-5" value="Appview" style="ellipse;whiteSpace=wrap;html=1;" vertex="1" parent="viiFKY2QcSOvLwfd27hr-12">
          <mxGeometry x="141" y="263" width="72" height="35" as="geometry" />
        </mxCell>
        <mxCell id="oapOpFwkoIbuOwmZs21n-6" value="" style="endArrow=classic;html=1;rounded=0;entryX=0;entryY=0.5;entryDx=0;entryDy=0;" edge="1" parent="viiFKY2QcSOvLwfd27hr-12" source="oapOpFwkoIbuOwmZs21n-4" target="oapOpFwkoIbuOwmZs21n-5">
          <mxGeometry width="50" height="50" relative="1" as="geometry">
            <mxPoint x="480" y="210" as="sourcePoint" />
            <mxPoint x="370" y="270" as="targetPoint" />
          </mxGeometry>
        </mxCell>
        <mxCell id="oapOpFwkoIbuOwmZs21n-9" value="write" style="edgeLabel;html=1;align=center;verticalAlign=middle;resizable=0;points=[];" vertex="1" connectable="0" parent="oapOpFwkoIbuOwmZs21n-6">
          <mxGeometry x="0.2189" y="5" relative="1" as="geometry">
            <mxPoint as="offset" />
          </mxGeometry>
        </mxCell>
        <mxCell id="oapOpFwkoIbuOwmZs21n-7" value="" style="endArrow=classic;html=1;rounded=0;entryX=0;entryY=0.5;entryDx=0;entryDy=0;exitX=1;exitY=0.5;exitDx=0;exitDy=0;" edge="1" parent="viiFKY2QcSOvLwfd27hr-12" source="oapOpFwkoIbuOwmZs21n-5" target="viiFKY2QcSOvLwfd27hr-13">
          <mxGeometry width="50" height="50" relative="1" as="geometry">
            <mxPoint x="110" y="295" as="sourcePoint" />
            <mxPoint x="150" y="307" as="targetPoint" />
          </mxGeometry>
        </mxCell>
        <mxCell id="oapOpFwkoIbuOwmZs21n-10" value="publish" style="edgeLabel;html=1;align=center;verticalAlign=middle;resizable=0;points=[];" vertex="1" connectable="0" parent="oapOpFwkoIbuOwmZs21n-7">
          <mxGeometry x="0.2301" relative="1" as="geometry">
            <mxPoint as="offset" />
          </mxGeometry>
        </mxCell>
        <mxCell id="oapOpFwkoIbuOwmZs21n-11" value="DID" style="rounded=1;whiteSpace=wrap;html=1;fontSize=7;" vertex="1" parent="viiFKY2QcSOvLwfd27hr-12">
          <mxGeometry x="305" y="301" width="30" height="14" as="geometry" />
        </mxCell>
        <mxCell id="oapOpFwkoIbuOwmZs21n-13" value="" style="curved=1;endArrow=classic;html=1;rounded=0;entryX=-0.016;entryY=0.642;entryDx=0;entryDy=0;entryPerimeter=0;" edge="1" parent="viiFKY2QcSOvLwfd27hr-12" target="oapOpFwkoIbuOwmZs21n-11">
          <mxGeometry width="50" height="50" relative="1" as="geometry">
            <mxPoint x="80" y="340" as="sourcePoint" />
            <mxPoint x="310" y="360" as="targetPoint" />
            <Array as="points">
              <mxPoint x="220" y="330" />
              <mxPoint x="270" y="330" />
            </Array>
          </mxGeometry>
        </mxCell>
        <mxCell id="oapOpFwkoIbuOwmZs21n-1" value="appview 3" parent="0" visible="0" />
        <mxCell id="viiFKY2QcSOvLwfd27hr-26" value="" style="endArrow=classic;html=1;rounded=0;entryX=0.004;entryY=0.456;entryDx=0;entryDy=0;entryPerimeter=0;exitX=0.89;exitY=0.607;exitDx=0;exitDy=0;exitPerimeter=0;" parent="oapOpFwkoIbuOwmZs21n-1" source="viiFKY2QcSOvLwfd27hr-16" target="viiFKY2QcSOvLwfd27hr-20" edge="1">
          <mxGeometry width="50" height="50" relative="1" as="geometry">
            <mxPoint x="475" y="336" as="sourcePoint" />
            <mxPoint x="571" y="332" as="targetPoint" />
          </mxGeometry>
        </mxCell>
        <mxCell id="viiFKY2QcSOvLwfd27hr-20" value="Appview" style="ellipse;whiteSpace=wrap;html=1;" parent="oapOpFwkoIbuOwmZs21n-1" vertex="1">
          <mxGeometry x="560" y="380" width="90" height="30" as="geometry" />
        </mxCell>
        <mxCell id="oapOpFwkoIbuOwmZs21n-2" value="Untitled Layer" parent="0" visible="0" />
        <mxCell id="viiFKY2QcSOvLwfd27hr-31" value="post search index" style="rounded=1;whiteSpace=wrap;html=1;fontSize=7;" parent="oapOpFwkoIbuOwmZs21n-2" vertex="1">
          <mxGeometry x="746" y="300" width="60" height="14" as="geometry" />
        </mxCell>
      </root>
    </mxGraphModel>
  </diagram>
</mxfile>
